<?xml version="1.0" encoding="UTF-8"?>
<svg viewBox="0 0 27 27" version="1.1" xmlns="http://www.w3.org/2000/svg" xmlns:xlink="http://www.w3.org/1999/xlink">
    <path d="M13.499,0 C20.956,0 27,6.045 27,13.5 C27,20.957 20.956,27 13.499,27 C6.044,27 0,20.958 0,13.5 C0,6.044 6.044,0 13.499,0 Z M20.575,20.18 C20.15,20.18 19.75,20.053 19.355,19.789 C17.171,18.335 17.917,16.591 19.408,13.892 C20.038,12.747 20.69,11.568 20.98,10.35 C21.291,9.04 21.574,7.13 20.438,5.686 C19.904,5.009 19.091,4.486 18.025,4.132 C16.913,3.765 15.485,3.566 13.775,3.543 L13.657,3.54 L13.223,3.543 C11.514,3.566 10.084,3.765 8.975,4.132 C7.907,4.486 7.095,5.008 6.56,5.686 C5.424,7.131 5.707,9.04 6.02,10.35 C6.308,11.568 6.961,12.75 7.59,13.891 C9.081,16.591 9.828,18.335 7.642,19.789 C7.248,20.053 6.85,20.179 6.424,20.179 C5.574,20.179 4.594,19.754 4.072,19.494 L4.199,19.717 C5.279,21.338 6.667,22.2 8.209,22.2 C8.885,22.2 9.599,22.036 10.329,21.712 C11.104,21.369 11.784,20.741 12.246,19.943 C12.706,19.145 12.889,18.286 12.758,17.522 C12.6,16.837 12.242,15.916 11.831,14.849 C10.754,12.066 9.283,8.261 10.553,6.4 C11.089,5.615 12.053,5.231 13.498,5.226 C14.945,5.231 15.908,5.615 16.444,6.4 C17.716,8.261 16.244,12.066 15.169,14.845 C14.756,15.913 14.399,16.835 14.241,17.515 C14.109,18.286 14.291,19.145 14.753,19.943 C15.215,20.741 15.895,21.369 16.67,21.713 C17.4,22.036 18.114,22.2 18.79,22.2 C20.332,22.2 21.72,21.338 22.805,19.71 L22.927,19.494 C22.407,19.754 21.427,20.18 20.575,20.18 Z" id="Combined-Shape" fill-rule="nonzero" fill="#d31334"></path>
</svg>